<svg xmlns="http://www.w3.org/2000/svg" width="48" height="48"><g data-name="Layer 2"><path d="M0 0v48h48V0zm47 47H1V4.8h46z"/><path d="M6 2.4A1.8 1.8 0 1 1 4.2.6 1.81 1.81 0 0 1 6 2.4" fill="#f572ef"/><path d="M13.2 2.4A1.8 1.8 0 1 1 11.4.6a1.81 1.81 0 0 1 1.8 1.8" fill="#fbf59b"/><path d="M20.4 2.4A1.8 1.8 0 1 1 18.6.6a1.81 1.81 0 0 1 1.8 1.8" fill="#a4eddd"/><path d="M2.4 26.89h27v1h-27zM2.4 30.29h27v1h-27zM2.4 9.9h6.5v1H2.4zM12.65 9.9h6.5v1h-6.5zM22.9 9.9h6.5v1h-6.5zM35.39 6.9h8v1h-8zM35.39 9.9h8v1h-8zM35.39 12.9h8v1h-8zM2.4 37.1h27v1h-27zM2.4 33.7h27v1h-27zM28.4 23h-25v-6h25zm1-7h-27v8h27zM45.29 44.6h-11.8v-6h11.8zm1-7h-13.8v8h13.8z"/><path d="m36.52 25.47-2.29 2.88-3.46-11.14 10.71 4.39L38 23.83l6.78 6.46L43.17 32l-6.65-6.56M42.1 43.46c-1.29-.62-2.7-.35-5.18.13-1.35.25-1.82.48-2.23.14a2.46 2.46 0 0 1-.21-2.58c.72-1.67 3-2.24 4.44-2.18.57 0 .24.11 2.94.71 1.15.25 1.52.31 1.93.7a3 3 0 0 1 .74 2.37c0 .26-.16 1.21-.72 1.44s-.9-.34-1.71-.73M15.9 17.4 5.08 19.8l10.82 2.8 10.82-2.34L15.9 17.4z" fill="#f572ef"/></g></svg>