<svg xmlns="http://www.w3.org/2000/svg" width="64" height="64" viewBox="0 0 64 64"><g id="Layer_2" data-name="Layer 2"><g id="Iconos"><path d="M0,0V64H64V0ZM62.67,62.67H1.33V6.4H62.67Z"/><path d="M8,3.2A2.4,2.4,0,1,1,5.6.8,2.39,2.39,0,0,1,8,3.2" fill="#f572ef"/><path d="M17.6,3.2A2.4,2.4,0,1,1,15.2.8a2.39,2.39,0,0,1,2.4,2.4" fill="#fbf59b"/><path d="M27.2,3.2A2.4,2.4,0,1,1,24.8.8a2.39,2.39,0,0,1,2.4,2.4" fill="#a4eddd"/><rect x="3.2" y="35.86" width="36" height="1.33"/><rect x="3.2" y="40.39" width="36" height="1.33"/><rect x="3.2" y="13.2" width="8.67" height="1.33"/><rect x="16.87" y="13.2" width="8.67" height="1.33"/><rect x="30.53" y="13.2" width="8.67" height="1.33"/><rect x="47.18" y="9.2" width="10.67" height="1.33"/><rect x="47.18" y="13.2" width="10.67" height="1.33"/><rect x="47.18" y="17.2" width="10.67" height="1.33"/><rect x="3.2" y="49.47" width="36" height="1.33"/><rect x="3.2" y="44.93" width="36" height="1.33"/><path d="M37.87,30.67H4.53v-8H37.87Zm1.33-9.34H3.2V32h36Z"/><path d="M60.38,59.47H44.65v-8H60.38Zm1.34-9.34H43.32V60.8h18.4Z"/><path d="M48.69,34l-3,3.83c-1.54-5-3-9.72-4.62-14.84L55.31,28.8l-4.67,3,9,8.6L57.56,42.7,48.69,34" fill="#f572ef"/><path d="M56.14,58c-1.73-.83-3.61-.47-6.91.16-1.8.35-2.42.64-3,.19-.78-.64-.77-2.29-.29-3.43,1-2.23,4-3,5.93-2.91.75,0,.31.14,3.91.94,1.53.34,2,.42,2.58.94a4,4,0,0,1,1,3.15c0,.36-.21,1.62-1,1.93s-1.2-.46-2.27-1" fill="#f572ef"/><polygon points="21.2 23.2 6.77 26.4 21.2 30.13 35.63 27.02 21.2 23.2" fill="#f572ef"/></g></g></svg>