<svg xmlns="http://www.w3.org/2000/svg" width="48" height="48"><g data-name="Layer 2"><path d="M48 8.35V0H0v48h48V8.35zM.69.69h46.62v7H.69zm46.62 46.62H.69v-7h46.62zm0-7.65H.69v-7.32h46.62zm0-8H.69v-7.32h46.62zm0-8H.69v-7.32h46.62zm0-8H.69V8.35h46.62z" fill="#a4eddd"/><path fill="#f572ef" d="M7.66 0h.69v48h-.69z"/><path d="M31.82 22.31c-3.05.81-2.57 2.94-5.82 5-5 3.17-7.57 1.46-9.6 4.6s-1.6 9.4 1.69 12.78c3.83 3.93 9.43 1.77 10 1.57 3.3-1.35 2.8-3.49 6.59-5.6 4.16-2.31 6.2-.53 8.22-2.93s2.35-6.54.72-9.87a10.44 10.44 0 0 0-6.14-5 9.13 9.13 0 0 0-5.61-.56z" fill="#fbf59b"/><path d="M15.71 10c3.49-1.5 6.54.21 11.19.9 9 1.33 10.69-3.23 14.56-.61S46.94 19.45 46 23.5c-.21.92-.7 3-2.59 3.94-.71.34-1.69.54-4.87 0-3.84-.62-4.35-1.22-6.35-1.48-4.81-.62-5.17 2.36-10.3 1.9a10.37 10.37 0 0 1-5.89-2C12.27 23 10.52 17 12.2 13.27A6.42 6.42 0 0 1 15.71 10z" fill="#f572ef"/><path d="M38.24 19.8c-4.07-1.53-7.45.25-12.72 1-10.14 1.42-12.36-3.3-16.64-.56s-5.73 9.44-4.43 13.64a6 6 0 0 0 3.18 4.06c.83.35 2 .55 5.56 0 4.35-.66 4.88-1.27 7.16-1.55 5.44-.67 6 2.42 11.85 1.91a12 12 0 0 0 6.61-2.09c4.07-3 5.74-9.27 3.62-13.09a7.72 7.72 0 0 0-4.19-3.33" fill="#a4eddd"/><path d="M43.31 27.45a10.66 10.66 0 0 0-5.92-4.58 9.1 9.1 0 0 0-5.61-.56c-3 .81-2.56 3-5.82 5l-.18.11a8.86 8.86 0 0 1-3.94.45 10.39 10.39 0 0 1-5.89-2 12.19 12.19 0 0 1-4-6.53c2.88.14 6 2.47 13.59 1.42 5.27-.73 8.65-2.51 12.72-1a7.67 7.67 0 0 1 4.18 3.33 8.27 8.27 0 0 1 .87 4.36z" fill="#9294d4"/><path d="M43.3 27.47a11.84 11.84 0 0 1-4.52 8.75 12 12 0 0 1-6.61 2.09c-5.83.51-6.41-2.58-11.85-1.91-1.87.22-2.57.68-5.16 1.2a9.59 9.59 0 0 1 1.2-5.67c2-3.1 4.56-1.47 9.42-4.49 1.95-.7 3.19-1.86 6.36-1.45 2 .26 2.51.86 6.35 1.48 3.11.53 4.11.32 4.81 0z" fill="#95c93d"/><path d="M37.39 22.87a9.1 9.1 0 0 0-5.61-.56c-3 .81-2.56 2.94-5.82 5l-.18.11c1.95-.7 3.19-1.86 6.36-1.45 2 .26 2.51.86 6.35 1.48 3.11.49 4.11.32 4.82 0a10.66 10.66 0 0 0-5.92-4.58z" fill="#407bad"/><path fill="none" d="M11.22 9.1H46.6v19.18H11.22z"/><path fill="none" d="M3.66 18.86H43.7v19.85H3.66z"/><path fill="none" d="M14.82 21.74h30.09V47.4H14.82z"/><path d="M22.93 28.28c-.33 0-.7 0-1.08-.05a10.63 10.63 0 0 1-6.08-2.07c-3.78-3-5.64-9.18-3.88-13a6.78 6.78 0 0 1 3.68-3.41c2.57-1.09 4.92-.53 7.64.11 1.17.28 2.38.57 3.74.77a18 18 0 0 0 9.16-.81c2-.63 3.51-1.12 5.55.26 3.86 2.62 5.65 9.31 4.67 13.53-.23 1-.75 3.2-2.78 4.17-.87.41-2 .55-5.08.05a27.58 27.58 0 0 1-4.19-1 11.69 11.69 0 0 0-2.15-.51 7.66 7.66 0 0 0-4.84.86 9.34 9.34 0 0 1-4.36 1.1zm-4.26-18.5a7.05 7.05 0 0 0-2.83.57 6 6 0 0 0-3.33 3.06c-1.64 3.6.12 9.42 3.69 12.21a10 10 0 0 0 5.71 1.92 8.72 8.72 0 0 0 5.09-1 8.44 8.44 0 0 1 5.22-.92 12.55 12.55 0 0 1 2.26.53 26.61 26.61 0 0 0 4.1.95c3.23.51 4.08.28 4.67 0 1.74-.83 2.21-2.84 2.41-3.7.93-4-.75-10.34-4.39-12.81-1.76-1.2-3-.79-5-.18a18.88 18.88 0 0 1-9.46.84c-1.39-.21-2.61-.5-3.8-.78a19.47 19.47 0 0 0-4.34-.69z" fill="#4934ad"/><path d="M31 38.71a11.92 11.92 0 0 1-5-1.1 9.79 9.79 0 0 0-5.62-.87 14.35 14.35 0 0 0-2.43.53 33.09 33.09 0 0 1-4.72 1c-3.49.52-4.75.38-5.74 0A6.34 6.34 0 0 1 4.12 34c-1.36-4.38.31-11.32 4.58-14 2.22-1.43 3.91-.95 6.25-.3a22.89 22.89 0 0 0 10.53.81c1.55-.21 2.91-.52 4.23-.81 3.06-.68 5.69-1.26 8.65-.15A8 8 0 0 1 42.73 23C45 27 43.18 33.41 39 36.5a12.39 12.39 0 0 1-6.79 2.15c-.43.04-.86.06-1.21.06zM21.82 36a10.69 10.69 0 0 1 4.44 1 11.32 11.32 0 0 0 5.91 1 11.81 11.81 0 0 0 6.44-2c3.91-2.9 5.58-8.93 3.52-12.65a7.32 7.32 0 0 0-4-3.18c-2.77-1-5.19-.5-8.26.18-1.34.3-2.71.6-4.29.82a23.74 23.74 0 0 1-10.8-.83c-2.25-.63-3.74-1-5.7.22-4 2.57-5.58 9.12-4.29 13.26a5.72 5.72 0 0 0 3 3.86c.71.29 1.7.53 5.37 0a32.36 32.36 0 0 0 4.64-1 14.4 14.4 0 0 1 2.54-.55 11.7 11.7 0 0 1 1.48-.13z" fill="#4934ad"/><path d="M23.91 47.39A8.21 8.21 0 0 1 17.85 45c-3.49-3.58-3.8-10-1.74-13.21 1.16-1.79 2.52-2.11 4.23-2.51A15.75 15.75 0 0 0 25.81 27a9.29 9.29 0 0 0 2.72-2.66 5.25 5.25 0 0 1 3.2-2.4 9.53 9.53 0 0 1 5.82.57 10.81 10.81 0 0 1 6.33 5.18C45.5 31 45.16 35.54 43.11 38a4.78 4.78 0 0 1-3.69 1.64A11 11 0 0 0 34.8 41a10.06 10.06 0 0 0-3.35 3 7.16 7.16 0 0 1-3.29 2.65 12 12 0 0 1-4.25.74zm8-24.75a4.58 4.58 0 0 0-2.82 2.15 9.94 9.94 0 0 1-2.91 2.83 16.34 16.34 0 0 1-5.69 2.28c-1.68.39-2.79.65-3.81 2.21-1.88 2.9-1.56 9 1.66 12.36 3.64 3.74 9 1.73 9.57 1.49a6.62 6.62 0 0 0 3-2.44 10.65 10.65 0 0 1 3.56-3.14 11.64 11.64 0 0 1 4.88-1.45 4.15 4.15 0 0 0 3.24-1.4c1.89-2.24 2.18-6.41.67-9.5a10 10 0 0 0-6-4.84 8.87 8.87 0 0 0-5.39-.55z" fill="#4934ad"/><path fill="#fbf59b" d="M25.98 30.85 2.86 7.74 8.29 2.3l23.12 23.12 2.11 7.54-7.54-2.11z"/><path fill="#f572ef" d="m2.863 7.726 5.43-5.43 3.36 3.359-5.431 5.43z"/><path d="m33.68 32.28-1.92-6.87v-.17l-.13-.13L8.78 2.3l-.49-.48-.48.48-4.95 5-.48.48.48.49L25.67 31l.13.13.17.05 6.87 1.91 1.17.33zm-.66.18zm-.72-2.59-1.87 1.87-3.93-1.1v-1.4h1.64v-1.65h1.65V26h1.41zM11.65 6.15l19.11 19.11h-1.65v1.16L10.25 7.55l1.4-1.4zM9.76 8l18.87 18.91h-1.17v1.15L8.6 9.2zM8.29 2.79l2.88 2.87-4.95 4.95-2.87-2.88zm-1.58 8.3 1.4-1.4L27 28.56h-1.19v1.64z" fill="#4934ad"/></g></svg>