<svg xmlns="http://www.w3.org/2000/svg" width="64" height="64" viewBox="0 0 64 64"><g id="Layer_2" data-name="Layer 2"><g id="Iconos"><path d="M64,11.13v-.92h0V0H0V10.21H0v.92H0v9.75H0v.91H0V64H64V53.79h0v-.91h0V43.13h0v-.92h0V32.46h0v-.92h0V21.79h0v-.91h0V11.13ZM.91.91H63.09v9.3H.91ZM63.09,63.09H.91v-9.3H63.09Zm0-10.21H.91V43.13H63.09Zm0-10.67H.91V32.46H63.09Zm0-10.67H.91V21.79H63.09Zm0-10.66H.91V11.13H63.09Z" fill="#a4eddd"/><rect x="10.21" width="0.91" height="64" fill="#f572ef"/><path d="M42.42,29.75c-4.06,1.08-3.42,3.92-7.76,6.69-6.64,4.23-10.08,2-12.8,6.13s-2.13,12.53,2.26,17C29.23,64.85,36.69,62,37.38,61.7c4.41-1.79,3.74-4.65,8.8-7.46,5.54-3.07,8.26-.71,11-3.9,2.55-3,3.14-8.73,1-13.16s-6.19-5.91-8.2-6.69a12.23,12.23,0,0,0-7.48-.74Z" fill="#fbf59b"/><path d="M21,13.38c4.66-2,8.72.28,14.92,1.21,12,1.77,14.25-4.31,19.42-.81s7.29,12.15,6,17.56c-.28,1.22-.94,4.05-3.46,5.25-.94.45-2.24.71-6.49,0-5.12-.82-5.79-1.61-8.47-2-6.4-.84-6.88,3.14-13.73,2.52a13.78,13.78,0,0,1-7.86-2.66c-4.94-3.87-7.28-11.9-5-16.83A8.59,8.59,0,0,1,21,13.38Z" fill="#f572ef"/><path d="M51,26.4c-5.43-2-9.94.33-17,1.31C20.5,29.6,17.54,23.3,11.84,27S4.2,39.57,5.93,45.17c.4,1.27,1.3,4.19,4.24,5.42,1.11.46,2.6.73,7.41,0,5.8-.88,6.52-1.7,9.55-2.07,7.26-.9,8,3.22,15.81,2.55a16.05,16.05,0,0,0,8.81-2.78c5.43-4,7.65-12.37,4.82-17.46A10.29,10.29,0,0,0,51,26.4" fill="#a4eddd"/><path d="M57.74,36.6c-2.2-3.92-6-5.37-7.88-6.11a12.23,12.23,0,0,0-7.48-.74c-4.06,1.08-3.42,3.92-7.76,6.69l-.25.15a11.64,11.64,0,0,1-5.24.59,13.75,13.75,0,0,1-7.86-2.66,16.29,16.29,0,0,1-5.41-8.71c3.84.18,8.06,3.3,18.13,1.9,7-1,11.53-3.35,17-1.31a10.27,10.27,0,0,1,5.57,4.44A10.83,10.83,0,0,1,57.74,36.6Z" fill="#9294d4"/><path d="M57.74,36.62a15.81,15.81,0,0,1-6,11.68,16.05,16.05,0,0,1-8.81,2.78c-7.78.67-8.54-3.44-15.8-2.55-2.49.3-3.42.91-6.87,1.6a12.68,12.68,0,0,1,1.6-7.56c2.68-4.13,6.07-2,12.55-6,2.61-.93,4.25-2.49,8.49-1.93,2.68.34,3.34,1.14,8.46,2C55.46,37.29,56.8,37.05,57.74,36.62Z" fill="#95c93d"/><path d="M49.86,30.49a12.24,12.24,0,0,0-7.48-.74c-4.06,1.08-3.42,3.92-7.76,6.69l-.25.15c2.61-.93,4.25-2.49,8.49-1.93,2.68.35,3.34,1.14,8.47,2,4.13.66,5.47.43,6.41,0v0C55.54,32.68,51.78,31.23,49.86,30.49Z" fill="#407bad"/><rect x="14.96" y="12.13" width="47.17" height="25.57" fill="none"/><rect x="4.88" y="25.14" width="53.38" height="26.47" fill="none"/><rect x="19.76" y="28.98" width="40.12" height="34.21" fill="none"/><path d="M30.58,37.7c-.45,0-.93,0-1.45-.06A14.14,14.14,0,0,1,21,34.88c-5.05-4-7.52-12.23-5.18-17.38A9.08,9.08,0,0,1,20.77,13c3.41-1.46,6.55-.71,10.18.15,1.56.37,3.17.75,5,1a24,24,0,0,0,12.2-1.08c2.62-.83,4.68-1.49,7.4.35,5.15,3.5,7.54,12.41,6.23,18-.3,1.28-1,4.26-3.71,5.56-1.15.55-2.62.74-6.76.07a36.31,36.31,0,0,1-5.6-1.29,15.82,15.82,0,0,0-2.86-.67,10.21,10.21,0,0,0-6.45,1.15A12.62,12.62,0,0,1,30.58,37.7ZM24.89,13.05a9.45,9.45,0,0,0-3.76.75h0a8.06,8.06,0,0,0-4.45,4.08c-2.18,4.8.16,12.56,4.92,16.28a13.38,13.38,0,0,0,7.61,2.57A11.77,11.77,0,0,0,36,35.42a11.22,11.22,0,0,1,7-1.22,17.1,17.1,0,0,1,3,.71,35.76,35.76,0,0,0,5.47,1.26c4.31.69,5.44.38,6.23,0,2.32-1.1,2.94-3.79,3.21-4.94,1.24-5.34-1-13.78-5.85-17.07-2.35-1.6-4.05-1.06-6.61-.24A25.13,25.13,0,0,1,35.8,15c-1.85-.28-3.48-.67-5.06-1A25.83,25.83,0,0,0,24.89,13.05Z" fill="#4934ad"/><path d="M41.27,51.62a15.9,15.9,0,0,1-6.59-1.47A13.2,13.2,0,0,0,27.19,49a18.74,18.74,0,0,0-3.24.71,43.23,43.23,0,0,1-6.3,1.36c-4.66.7-6.33.52-7.65,0-3.14-1.31-4.09-4.39-4.5-5.7-1.81-5.84.41-15.1,6.09-18.74,3-1.9,5.23-1.27,8.35-.39a30.65,30.65,0,0,0,14,1.08c2.06-.29,3.88-.7,5.64-1.09,4.08-.9,7.6-1.68,11.54-.2h0A10.77,10.77,0,0,1,57,30.62c3,5.33.6,13.93-4.95,18-3.19,2.38-6.57,2.67-9,2.88C42.37,51.59,41.8,51.62,41.27,51.62ZM29.09,47.94A14.49,14.49,0,0,1,35,49.3a15.08,15.08,0,0,0,7.88,1.33c2.36-.21,5.59-.48,8.58-2.7,5.21-3.87,7.44-11.91,4.69-16.87a9.78,9.78,0,0,0-5.34-4.23h0c-3.69-1.39-6.93-.67-11,.24-1.78.39-3.61.8-5.72,1.09a31.59,31.59,0,0,1-14.4-1.1c-3-.84-5-1.4-7.6.28C6.74,30.77,4.66,39.51,6.37,45c.37,1.2,1.24,4,4,5.14.94.39,2.26.71,7.16,0a42.85,42.85,0,0,0,6.19-1.33,20.61,20.61,0,0,1,3.38-.74A16.21,16.21,0,0,1,29.09,47.94Z" fill="#4934ad"/><path d="M31.88,63.19a11,11,0,0,1-8.09-3.26c-4.65-4.77-5.06-13.39-2.31-17.61C23,39.93,24.83,39.51,27.12,39a21.33,21.33,0,0,0,7.3-2.93A12.3,12.3,0,0,0,38,32.51a7,7,0,0,1,4.27-3.2h0a12.59,12.59,0,0,1,7.75.76c2,.77,6.23,2.39,8.45,6.91s1.71,10.4-1,13.65c-1.51,1.8-3.09,2-4.91,2.18a14.65,14.65,0,0,0-6.17,1.83,13.37,13.37,0,0,0-4.47,4,9.55,9.55,0,0,1-4.38,3.53A15.93,15.93,0,0,1,31.88,63.19Zm10.66-33a6.14,6.14,0,0,0-3.76,2.86,13.11,13.11,0,0,1-3.87,3.77,21.81,21.81,0,0,1-7.59,3c-2.24.52-3.72.87-5.08,3-2.51,3.86-2.08,12.07,2.21,16.47,4.86,5,12,2.31,12.76,2a8.8,8.8,0,0,0,4-3.26A14.23,14.23,0,0,1,46,53.84a15.57,15.57,0,0,1,6.5-1.94c1.77-.19,3-.34,4.32-1.86,2.52-3,2.92-8.55.9-12.66s-5.88-5.67-7.94-6.46a11.83,11.83,0,0,0-7.2-.73Z" fill="#4934ad"/><polygon points="34.64 41.13 3.82 10.31 11.06 3.07 41.88 33.89 44.69 43.94 34.64 41.13" fill="#fbf59b"/><rect x="4.56" y="5.76" width="10.24" height="6.33" transform="translate(-3.48 9.46) rotate(-45)" fill="#f572ef"/><path d="M44.91,43l-2.56-9.15-.06-.24-.17-.17L11.7,3.07l-.64-.64-.65.64L3.82,9.67l-.65.64.65.65L34.23,41.37l.17.17.23.07,9.15,2.55,1.56.44Zm-.88.24Zm-1-3.45-2.48,2.49-5.25-1.47V39h2.2v-2.2h2.2v-2.2H41.6ZM15.54,8.2,41,33.68H38.81v1.54L13.66,10.07,15.54,8.2ZM13,10.72,38.18,35.88H36.61v1.54L11.46,12.27Zm-1.95-7,3.83,3.83L8.3,14.14,4.46,10.31ZM8.94,14.79l1.88-1.87L36,38.08H34.41v2.18Z" fill="#4934ad"/></g></g></svg>