<svg xmlns="http://www.w3.org/2000/svg" width="64" height="64" viewBox="0 0 64 64"><g id="Layer_2" data-name="Layer 2"><g id="Iconos"><path d="M64,21.79v-.91h0V3.67A3.67,3.67,0,0,0,60.33,0H3.67A3.67,3.67,0,0,0,0,3.67V60.33A3.67,3.67,0,0,0,3.67,64H60.33A3.67,3.67,0,0,0,64,60.33V43.12h0v-.91h0V21.79ZM60.33.91a2.77,2.77,0,0,1,2.76,2.76V20.88h-20V.91ZM42.21.91v20H21.79V.91ZM20.88,42.21H.91V21.79h20Zm.91-20.42H42.21V42.21H21.79ZM42.21,43.12v20H21.79v-20ZM3.67.91H20.88v20H.91V3.67A2.77,2.77,0,0,1,3.67.91ZM.91,60.33V43.12h20v20H3.67A2.77,2.77,0,0,1,.91,60.33Zm62.18,0a2.77,2.77,0,0,1-2.76,2.76H43.12v-20h20Zm0-18.12h-20V21.79h20Z" fill="#a4eddd"/><path d="M.91,20.88V36.2h41.3V20.88ZM2,34.79V22.28l18,6.34Zm19.37-5.67L39.7,35.28H3.39ZM3.38,21.8H39.75L21.33,28.13Zm19.36,6.83,18.42-6.34v12.5Z" fill="#f572ef"/><path d="M43.12,31.56h20V20.89h-20Zm10-4.82,8.32,3.91H44.79Zm-9,3.2V22.52L52,26.23ZM54.2,26.23l7.89-3.71v7.42Zm-1.1-.52-8.31-3.9H61.42Z" fill="#f572ef"/><rect y="5.94" width="64" height="0.91" fill="#f572ef"/><rect x="0.91" y="42.21" width="41.3" height="0.91" fill="#f572ef"/><rect x="0.91" y="47.98" width="41.3" height="0.91" fill="#f572ef"/><rect x="0.91" y="59.53" width="41.3" height="0.91" fill="#f572ef"/><rect x="0.91" y="53.76" width="41.3" height="0.91" fill="#f572ef"/><rect x="3.2" y="13.3" width="8.67" height="0.91" fill="#f572ef"/><rect x="16.87" y="13.3" width="8.67" height="0.91" fill="#f572ef"/><rect x="30.53" y="13.3" width="8.67" height="0.91" fill="#f572ef"/><rect x="47.95" y="9.3" width="10.67" height="0.91" fill="#f572ef"/><rect x="47.95" y="13.3" width="10.67" height="0.91" fill="#f572ef"/><rect x="47.95" y="17.3" width="10.67" height="0.91" fill="#f572ef"/><path d="M6.29,3.14a1.72,1.72,0,1,1-3.43,0,1.72,1.72,0,0,1,3.43,0Z" fill="#f572ef"/><path d="M11.22,3.14a1.72,1.72,0,1,1-1.71-1.7A1.72,1.72,0,0,1,11.22,3.14Z" fill="#f572ef"/><path d="M16.15,3.14a1.71,1.71,0,1,1-1.7-1.7A1.71,1.71,0,0,1,16.15,3.14Z" fill="#f572ef"/><path d="M62.3,52.67a1,1,0,0,1-.32.75c-1.65,1.52-5,4.07-8.87,4.07s-7.23-2.55-8.88-4.07a1,1,0,0,1-.32-.75,1,1,0,0,1,.32-.74c.3-.29.67-.6,1.08-.93a5.33,5.33,0,1,0,9.86-2.91A15.67,15.67,0,0,1,62,51.93,1,1,0,0,1,62.3,52.67Z" fill="none"/><path d="M62.51,51.35c-1.73-1.6-5.26-4.28-9.4-4.28s-7.68,2.68-9.41,4.28a1.8,1.8,0,0,0,0,2.65c1.73,1.59,5.26,4.27,9.41,4.27s7.67-2.68,9.4-4.27a1.8,1.8,0,0,0,0-2.65ZM62,53.42c-1.65,1.52-5,4.07-8.87,4.07s-7.23-2.55-8.88-4.07a1,1,0,0,1-.32-.75,1,1,0,0,1,.32-.74q.47-.43,1.08-.93a5.33,5.33,0,1,0,9.86-2.91A15.67,15.67,0,0,1,62,51.93a1,1,0,0,1,.32.74A1,1,0,0,1,62,53.42Z" fill="#f572ef"/></g></g></svg>